<?xml version="1.0" encoding="UTF-8"?>
<svg id="Layer_1" xmlns="http://www.w3.org/2000/svg" viewBox="0 0 38.4 38.4">
    <defs>
        <style>.cls-1{fill:#fff;}.cls-2{fill:none;}</style>
    </defs>
    <rect class="cls-2" x="-4.8" y="-4.8" width="48" height="48"/>
    <path class="cls-1"
          d="m19.2,0C8.59,0,0,8.59,0,19.2s8.59,19.2,19.2,19.2,19.2-8.59,19.2-19.2S29.81,0,19.2,0Zm0,8.4c3.98,0,7.2,3.22,7.2,7.2s-3.22,7.2-7.2,7.2-7.2-3.22-7.2-7.2,3.22-7.2,7.2-7.2Zm0,26.4c-4.92,0-9.29-2.28-12.17-5.86,3.48-2.35,7.66-3.74,12.17-3.74s8.69,1.39,12.17,3.74c-2.88,3.58-7.25,5.86-12.17,5.86Z"/>
</svg>